<?xml version="1.0" standalone="no"?>
<!DOCTYPE svg PUBLIC "-//W3C//DTD SVG 20010904//EN"
 "http://www.w3.org/TR/2001/REC-SVG-20010904/DTD/svg10.dtd">
<svg version="1.0" xmlns="http://www.w3.org/2000/svg"
 width="700.000000pt" height="700.000000pt" viewBox="0 0 700.000000 700.000000"
 preserveAspectRatio="xMidYMid meet">
<metadata>
Created by potrace 1.14, written by Peter Selinger 2001-2017
</metadata>
<g transform="translate(0.000000,700.000000) scale(0.100000,-0.100000)"
fill="#000000" stroke="none">
<path d="M2363 6129 l-171 -171 -341 -1 c-187 -1 -341 2 -341 6 0 5 -4 6 -9 2
-6 -3 -70 -5 -143 -5 -185 1 -179 1 -190 -6 -5 -3 -8 -14 -5 -24 8 -30 -10
-47 -46 -45 l-35 2 0 -520 0 -520 -143 -143 c-79 -78 -144 -148 -144 -154 0
-6 65 -75 144 -154 l143 -143 2 -1769 1 -1769 1225 0 1225 0 -1 33 c-1 31 0
32 42 32 46 0 57 15 42 58 -4 12 -4 22 0 22 9 0 6 375 -3 389 -3 6 -3 11 2 11
4 0 7 102 6 226 l-2 227 408 -409 c224 -225 415 -415 425 -423 16 -13 92 60
887 855 478 478 869 873 869 877 0 11 -15 26 -1388 1400 l-1196 1197 -3 55
c-1 30 -4 59 -8 65 -3 5 -3 10 2 10 6 0 9 403 4 592 -1 23 -5 26 -35 26 -19 0
-39 3 -45 7 -6 3 -11 3 -11 -2 0 -4 -48 -7 -107 -6 -130 3 -139 4 -281 1 -61
0 -114 1 -117 3 -2 3 -31 2 -64 -1 -33 -3 -68 -3 -78 1 -10 4 -82 72 -159 151
-78 78 -153 153 -166 165 l-23 22 -172 -170z"/>
</g>
</svg>
